<?xml version="1.0" standalone="no"?>
<!DOCTYPE svg PUBLIC "-//W3C//DTD SVG 1.1//EN" "http://www.w3.org/Graphics/SVG/1.1/DTD/svg11.dtd" >
<svg xmlns="http://www.w3.org/2000/svg">
<metadata>Generated by IcoMoon</metadata>
<defs>
<font id="icomoon" horiz-adv-x="1024">
<font-face units-per-em="1024" ascent="960" descent="-64" />
<missing-glyph horiz-adv-x="1024" />
<glyph unicode="&#x20;" horiz-adv-x="512" d="" />
<glyph unicode="&#xe900;" glyph-name="smc-shop" d="M442.182 445.673h-179.2c-34.909 0-58.182-32.582-58.182-67.491v-165.236c0-34.909 23.273-69.818 58.182-69.818h179.2c32.582 0 65.164 34.909 65.164 69.818v165.236c0 34.909-32.582 67.491-65.164 67.491zM460.8 212.945c0-9.309-11.636-23.273-18.618-23.273h-179.2c-6.982 0-11.636 13.964-11.636 23.273v165.236c0 9.309 2.327 20.945 11.636 20.945h179.2c6.982 0 18.618-11.636 18.618-20.945v-165.236zM944.873 769.164c0 0 2.327 4.655 2.327 4.655 0 76.8-55.855 139.636-128 139.636h-607.418c-69.818-2.327-128-69.818-128-139.636 0 0 0-2.327-2.327-2.327l-2.327 2.327c-32.582 0-60.509-25.6-60.509-58.182v-130.327c0-37.236 23.273-67.491 67.491-76.8 0 0 2.327 0 2.327-2.327v-390.982c0-76.8 51.2-134.982 123.345-134.982h607.418c72.145 0 132.655 58.182 132.655 134.982v393.309c0 0 0 2.327 0 2.327 23.273 11.636 46.545 39.564 46.545 74.473v111.709c-2.327 32.582-23.273 62.836-53.527 72.145zM211.782 864.582h607.418c44.218 0 81.455-44.218 81.455-90.764 0 0 0-2.327-2.327-2.327h-768c0 46.545 37.236 93.091 81.455 93.091zM770.327 724.945h65.164c0 0-2.327 0-2.327 0v-151.273c0-18.618-11.636-34.909-30.255-34.909h-2.327c-18.618 0-37.236 16.291-37.236 34.909v151.273c0 2.327 4.655 0 6.982 0zM653.964 724.945h65.164c0 0-2.327 0-2.327 0v-151.273c0-18.618-11.636-34.909-30.255-34.909h-2.327c-18.618 0-37.236 16.291-37.236 34.909v151.273c0 2.327 4.655 0 6.982 0zM537.6 724.945h65.164c0 0-2.327 0-2.327 0v-151.273c0-18.618-11.636-34.909-30.255-34.909h-2.327c-18.618 0-37.236 16.291-37.236 34.909v151.273c0 2.327 4.655 0 6.982 0zM421.236 724.945h65.164c0 0-2.327 0-2.327 0v-151.273c0-18.618-11.636-34.909-30.255-34.909h-2.327c-18.618 0-37.236 16.291-37.236 34.909v151.273c0 2.327 4.655 0 6.982 0zM304.873 724.945h65.164c0 0-2.327 0-2.327 0v-151.273c0-18.618-11.636-34.909-30.255-34.909h-2.327c-18.618 0-37.236 16.291-37.236 34.909v151.273c0 2.327 4.655 0 6.982 0zM188.509 724.945h65.164c0 0-2.327 0-2.327 0v-151.273c0-18.618-11.636-34.909-30.255-34.909v0c-18.618 0-37.236 16.291-37.236 34.909v151.273c-2.327 2.327 2.327 0 4.655 0zM65.164 576v139.636c0 6.982 9.309 11.636 18.618 11.636h53.527c0 0-2.327 0-2.327 0v-151.273c0-18.618-11.636-34.909-30.255-34.909v0c-18.618-2.327-39.564 16.291-39.564 34.909zM623.709 26.764v346.764c0 13.964 16.291 25.6 30.255 25.6h88.436c13.964 0 20.945-9.309 20.945-23.273v-349.091h-139.636zM819.2 26.764h-4.655c2.327 0-4.655 6.982-4.655 11.636v335.127c0 39.564-30.255 72.145-69.818 72.145h-95.418c-34.909 0-67.491-27.927-67.491-62.836v-344.436c0-4.655 4.655-11.636 4.655-11.636h-372.364c-46.545 0-76.8 37.236-76.8 88.436v395.636c0 4.655 18.618 4.655 27.927 11.636 0 0 2.327 0 2.327 0 13.964-13.964 30.255-27.927 48.873-27.927h6.982c20.945 0 39.564 9.309 53.527 23.273 0 0 2.327 0 2.327 0 13.964-13.964 32.582-20.945 53.527-20.945h6.982c20.945 0 39.564 9.309 53.527 23.273 0 0 2.327 0 2.327 0 13.964-13.964 32.582-20.945 53.527-20.945h6.982c20.945 0 39.564 9.309 53.527 23.273 0 0 2.327 0 2.327 0 13.964-13.964 32.582-20.945 53.527-20.945h6.982c20.945 0 39.564 9.309 53.527 23.273 0 0 2.327 0 2.327 0 13.964-13.964 32.582-20.945 53.527-20.945h6.982c20.945 0 39.564 9.309 53.527 23.273 0 0 2.327 0 2.327 0 13.964-13.964 32.582-20.945 53.527-20.945h6.982c20.945 0 44.218 13.964 58.182 27.927 0 0 2.327 0 2.327 0 9.309-9.309 16.291-11.636 37.236-13.964 0 0 0 0 0-2.327v-390.982c4.655-62.836-34.909-100.073-79.127-100.073zM949.527 576c0-18.618-11.636-34.909-30.255-34.909h-2.327c-18.618 0-37.236 16.291-37.236 34.909v151.273c0 0 4.655 0 6.982 0h34.909c18.618 0 27.927-13.964 27.927-30.255v-121.018z" />
<glyph unicode="&#xe901;" glyph-name="smc-truck-checked" d="M297.891 406.109c0 0 0 0 0 0s0 0 0 0v0c2.327-2.327 2.327-2.327 4.655-4.655 0 0 2.327-2.327 2.327-2.327 2.327-2.327 4.655-2.327 9.309-2.327s6.982 0 9.309 2.327c0 0 2.327 2.327 2.327 2.327 2.327 0 2.327 2.327 4.655 2.327v0c0 0 0 0 0 0s0 0 0 0l176.873 181.527c9.309 9.309 9.309 25.6 0 34.909s-23.273 9.309-32.582 0l-160.582-165.236-81.455 86.109c-9.309 9.309-23.273 9.309-32.582 0s-9.309-25.6 0-34.909l97.745-100.073zM805.236 701.673h-151.273c-4.655 0-11.636 6.982-16.291 4.655v53.527c0 46.545-37.236 81.455-83.782 81.455h-446.836c-46.545 0-90.764-23.273-90.764-69.818v-553.891c0-46.545 44.218-74.473 90.764-74.473h44.218c11.636-46.545 60.509-97.745 118.691-97.745s107.055 51.2 118.691 97.745h225.745c0 0 2.327 0 2.327 0h67.491c11.636-46.545 58.182-93.091 111.709-93.091s100.073 46.545 111.709 93.091h27.927c34.909 0 62.836 23.273 62.836 58.182v311.855c2.327 109.382-86.109 188.509-193.164 188.509zM62.836 217.6v553.891c0 20.945 23.273 23.273 44.218 23.273h449.164c20.945 0 37.236-9.309 37.236-30.255v-116.364c0 0 0 6.982 0 6.982v-465.455h-204.8c-11.636 46.545-60.509 100.073-118.691 100.073s-107.055-53.527-118.691-100.073h-44.218c-20.945 0-44.218 6.982-44.218 27.927zM269.964 82.618c-39.564 0-74.473 32.582-74.473 74.473s32.582 74.473 74.473 74.473c39.564 0 74.473-32.582 74.473-74.473 0-39.564-34.909-74.473-74.473-74.473zM795.927 87.273c-37.236 0-69.818 30.255-69.818 69.818s30.255 69.818 69.818 69.818 69.818-30.255 69.818-69.818c0-37.236-30.255-69.818-69.818-69.818zM954.182 201.309c0-9.309-6.982-9.309-16.291-9.309h-27.927c-9.309 46.545-58.182 95.418-114.036 95.418s-102.4-48.873-114.036-95.418h-44.218v458.473c0 9.309 6.982 6.982 16.291 6.982h151.273c81.455 0 148.945-58.182 148.945-141.964v-314.182z" />
<glyph unicode="&#xe902;" glyph-name="smc-clock" d="M512 913.455c-256 0-465.455-209.455-465.455-465.455s209.455-465.455 465.455-465.455 465.455 209.455 465.455 465.455-209.455 465.455-465.455 465.455zM512 29.091c-230.4 0-418.909 188.509-418.909 418.909s188.509 418.909 418.909 418.909 418.909-186.182 418.909-418.909-188.509-418.909-418.909-418.909zM726.109 468.945h-176.873v258.327c0 13.964-9.309 23.273-23.273 23.273s-23.273-9.309-23.273-23.273v-279.273c0-13.964 2.327-23.273 13.964-23.273h209.455c13.964 0 23.273 9.309 23.273 23.273s-9.309 20.945-23.273 20.945z" />
<glyph unicode="&#xe903;" glyph-name="smc-rule" d="M956.509 755.2l-141.964 141.964c-25.6 25.6-72.145 25.6-97.745 0l-656.291-653.964c-27.927-27.927-27.927-72.145 0-97.745l141.964-141.964c13.964-13.964 30.255-20.945 48.873-20.945s37.236 6.982 48.873 20.945l653.964 653.964c13.964 13.964 20.945 30.255 20.945 48.873s-6.982 34.909-18.618 48.873zM923.927 687.709l-653.964-653.964c-9.309-9.309-23.273-9.309-32.582 0l-144.291 141.964c-9.309 9.309-9.309 23.273 0 32.582l39.564 39.564 34.909-32.582c4.655-4.655 11.636-6.982 16.291-6.982s11.636 2.327 16.291 6.982c9.309 9.309 9.309 23.273 0 32.582l-32.582 32.582 34.909 34.909 76.8-76.8c4.655-4.655 11.636-6.982 16.291-6.982s11.636 2.327 16.291 6.982c9.309 9.309 9.309 23.273 0 32.582l-76.8 76.8 34.909 34.909 32.582-32.582c4.655-4.655 11.636-6.982 16.291-6.982s11.636 2.327 16.291 6.982c9.309 9.309 9.309 23.273 0 32.582l-32.582 34.909 34.909 34.909 76.8-76.8c4.655-4.655 11.636-6.982 16.291-6.982s11.636 2.327 16.291 6.982c9.309 9.309 9.309 23.273 0 32.582l-76.8 76.8 34.909 34.909 32.582-32.582c4.655-4.655 11.636-6.982 16.291-6.982s11.636 2.327 16.291 6.982c9.309 9.309 9.309 23.273 0 32.582l-32.582 32.582 34.909 34.909 76.8-76.8c4.655-4.655 11.636-6.982 16.291-6.982s11.636 2.327 16.291 6.982c9.309 9.309 9.309 23.273 0 32.582l-76.8 76.8 34.909 34.909 32.582-32.582c4.655-4.655 11.636-6.982 16.291-6.982s11.636 2.327 16.291 6.982c9.309 9.309 9.309 23.273 0 32.582l-32.582 32.582 34.909 34.909 76.8-76.8c4.655-4.655 11.636-6.982 16.291-6.982s11.636 2.327 16.291 6.982c9.309 9.309 9.309 23.273 0 32.582l-76.8 76.8 34.909 34.909 32.582-32.582c6.982-4.655 11.636-6.982 18.618-6.982s11.636 2.327 16.291 6.982c9.309 9.309 9.309 23.273 0 32.582l-32.582 32.582 39.564 39.564c4.655 4.655 9.309 6.982 16.291 6.982s11.636-2.327 16.291-6.982l141.964-141.964c4.655-4.655 6.982-9.309 6.982-16.291s-2.327-11.636-6.982-16.291z" />
<glyph unicode="&#xe904;" glyph-name="smc-star" d="M249.018-17.455c-11.636 0-20.945 2.327-32.582 9.309-18.618 13.964-25.6 37.236-20.945 58.182l60.509 260.655c0 0 0 0 0 0 0 2.327 0 6.982-2.327 9.309l-190.836 181.527c-16.291 16.291-20.945 37.236-13.964 58.182s25.6 34.909 48.873 37.236l249.018 13.964c2.327 0 6.982 2.327 6.982 4.655l107.055 260.655c9.309 23.273 27.927 34.909 51.2 34.909 0 0 0 0 0 0 23.273 0 41.891-13.964 51.2-32.582l102.4-251.345c2.327-2.327 4.655-4.655 6.982-4.655l256-23.273c20.945-2.327 39.564-16.291 46.545-37.236s2.327-44.218-16.291-58.182l-190.836-176.873c-2.327-2.327-2.327-4.655-2.327-9.309l55.855-251.345c4.655-20.945-2.327-44.218-20.945-55.855-18.618-13.964-39.564-13.964-58.182-4.655l-230.4 128c-2.327 2.327-4.655 2.327-9.309 0l-223.418-144.291c-9.309-4.655-20.945-6.982-30.255-6.982zM302.545 299.055l-62.836-260.655c-2.327-4.655 2.327-6.982 2.327-9.309 2.327-2.327 4.655-2.327 9.309 0l223.418 144.291c16.291 11.636 39.564 11.636 55.855 2.327l230.4-130.327c4.655-2.327 6.982 0 9.309 0 2.327 2.327 4.655 4.655 2.327 9.309l-53.527 253.673c-4.655 18.618 2.327 39.564 16.291 53.527l193.164 174.545c4.655 2.327 2.327 6.982 2.327 9.309s-2.327 4.655-6.982 4.655l-256 23.273c-20.945 2.327-37.236 13.964-46.545 34.909l-102.4 253.673c-2.327 4.655-4.655 4.655-6.982 4.655v0c-2.327 0-4.655 0-6.982-4.655l-107.055-262.982c-6.982-18.618-25.6-32.582-46.545-34.909l-251.345-16.291c-4.655 0-6.982-4.655-6.982-4.655 0-2.327 0-6.982 2.327-9.309l190.836-181.527c13.964-13.964 20.945-32.582 16.291-53.527v0z" />
<glyph unicode="&#xe905;" glyph-name="smc-card" d="M856.436 794.764h-688.873c-67.491 0-116.364-51.2-116.364-118.691v-456.145c0-67.491 48.873-125.673 116.364-125.673h686.545c67.491 0 125.673 58.182 125.673 125.673v458.473c2.327 67.491-55.855 116.364-123.345 116.364zM167.564 748.218h686.545c41.891 0 79.127-30.255 79.127-72.145v-20.945h-837.818v20.945c2.327 44.218 30.255 72.145 72.145 72.145zM935.564 562.036h-837.818v46.545h837.818v-46.545zM856.436 143.127h-688.873c-41.891 0-69.818 37.236-69.818 79.127v293.236h837.818v-293.236c0-39.564-37.236-79.127-79.127-79.127z" />
<glyph unicode="&#xe906;" glyph-name="smc-envelop" d="M965.818 219.927c0-67.491-53.527-121.018-121.018-121.018h-686.545c-67.491 0-121.018 53.527-121.018 121.018v453.818c0 67.491 53.527 121.018 121.018 121.018h686.545c67.491 0 121.018-53.527 121.018-121.018v-453.818zM919.273 673.745c0 41.891-32.582 74.473-74.473 74.473h-686.545c-41.891 0-74.473-32.582-74.473-74.473v-453.818c0-41.891 32.582-74.473 74.473-74.473h686.545c41.891 0 74.473 32.582 74.473 74.473v453.818zM65.164 690.036l20.945-23.273 235.055-246.691c-141.964-151.273-202.473-214.109-228.073-239.709-11.636-13.964-16.291-16.291-16.291-16.291l16.291-18.618v-23.273c0 0 0 0 0 0 4.655 0 6.982 2.327 27.927 23.273 27.927 27.927 90.764 93.091 232.727 242.036l69.818-74.473c20.945-23.273 51.2-34.909 81.455-34.909 16.291 0 34.909 4.655 48.873 11.636 11.636 4.655 20.945 13.964 30.255 23.273l72.145 74.473 230.4-242.036 13.964-16.291c4.655-4.655 11.636-6.982 16.291-6.982s11.636 2.327 16.291 6.982c9.309 9.309 9.309 23.273 0 32.582l-18.618 18.618-228.073 242.036 235.055 246.691 18.618 20.945c0 0 2.327 2.327 2.327 2.327 9.309 9.309 9.309 23.273 0 32.582s-23.273 9.309-32.582 2.327c0 0-2.327-2.327-2.327-2.327l-4.655-6.982-349.091-374.691c-4.655-4.655-11.636-9.309-16.291-13.964-25.6-11.636-55.855-6.982-76.8 13.964l-353.745 370.036z" />
<glyph unicode="&#xe907;" glyph-name="smc-cart" d="M919.789 673.003h-213.342c-0.973 2.522-2.488 4.9-4.634 7.020l-163.23 183.925c-1.2 2.964-3.024 5.771-5.505 8.252-9.377 7.020-23.442 7.020-32.819-2.332l-178.111-196.865h-217.951c-46.885 0-84.367-37.508-84.367-84.367v-18.754c0-39.407 26.514-72.183 62.803-81.621l80.158-384.768c11.709-51.573 56.237-86.724 105.478-86.724h496.851c49.216 0 93.744 35.151 107.81 89.056l80.535 386.564c29.93 12.897 50.717 42.59 50.717 77.468v18.754c0 46.884-37.508 84.367-84.367 84.367zM516.63 818.634l129.253-145.638h-261.003l131.751 145.638zM823.705 115.202c-4.689-28.131-30.462-51.573-58.593-51.573h-496.851c-28.131 0-51.573 21.086-58.593 51.573l-77.347 370.313h768.732l-77.347-370.313zM957.288 569.882c0-21.086-16.397-37.508-37.508-37.508h-815.614c-21.086 0-37.508 16.397-37.508 37.508v18.754c0 21.086 16.397 37.508 37.508 37.508h815.614c21.086 0 37.508-16.397 37.508-37.508v-18.754zM685.416 415.188l-171.135-179.673-86.68 90.618c-9.377 9.377-23.442 9.377-32.819 0s-9.377-23.442 0-32.819l103.121-107.81c4.689-4.688 9.377-7.020 16.397-7.020 4.689 0 11.709 2.332 16.397 7.020 0.31 0.31 0.59 0.598 0.865 0.914l186.623 195.952c9.377 9.377 9.377 23.442 0 32.819s-23.442 9.377-32.819 0z" />
<glyph unicode="&#xe908;" glyph-name="smc-marker" d="M507.345 934.4c-209.455 0-372.364-162.909-372.364-372.364 0-153.6 195.491-472.436 295.564-572.509 20.945-20.945 48.873-32.582 76.8-32.582s58.182 11.636 76.8 32.582c97.745 100.073 295.564 416.582 295.564 572.509 0 209.455-162.909 372.364-372.364 372.364zM551.564 22.109c-23.273-23.273-65.164-23.273-88.436 0-104.727 109.382-281.6 409.6-281.6 539.927 0 183.855 141.964 325.818 325.818 325.818s325.818-144.291 325.818-325.818c0-130.327-174.545-430.545-281.6-539.927zM507.345 731.927c-79.127 0-141.964-62.836-141.964-139.636s62.836-139.636 141.964-139.636 141.964 62.836 141.964 139.636c0 76.8-62.836 139.636-141.964 139.636zM507.345 499.2c-53.527 0-95.418 41.891-95.418 93.091s44.218 93.091 95.418 93.091 95.418-41.891 95.418-93.091c0-51.2-41.891-93.091-95.418-93.091z" />
<glyph unicode="&#xe90a;" glyph-name="smc-chat" d="M954.182 622.545c-27.927 30.255-65.164 44.218-104.727 46.545l-193.164 2.327v27.927c0 83.782-69.818 148.945-153.6 148.945h-330.473c-83.782 0-144.291-65.164-144.291-148.945v-195.491c0-76.8 51.2-139.636 123.345-151.273l-2.327-86.109c0-9.309 4.655-16.291 11.636-20.945 2.327-2.327 6.982-2.327 9.309-2.327 4.655 0 9.309 6.982 13.964 9.309l128 107.055h48.873v-30.255c0-41.891 13.964-81.455 44.218-111.709 27.927-30.255 67.491-46.545 107.055-46.545l188.509-2.327 128-104.727c4.655-2.327 9.309-4.655 13.964-4.655s6.982 0 9.309 2.327c6.982 4.655 13.964 11.636 13.964 20.945v86.109c72.145 11.636 128 74.473 128 151.273l2.327 195.491c2.327 39.564-11.636 79.127-41.891 107.055zM304.873 406.109c-4.655 0-9.309-6.982-13.964-9.309l-95.418-79.127v58.182c0 6.982-2.327 11.636-6.982 16.291s-6.982 6.982-11.636 6.982c-58.182 0-100.073 48.873-100.073 107.055v195.491c0 58.182 39.564 102.4 97.745 102.4h330.473c58.182 0 107.055-44.218 107.055-102.4v-195.491c0-58.182-48.873-97.745-107.055-97.745h-200.145zM949.527 320c0-58.182-48.873-107.055-104.727-107.055-6.982 0-11.636-2.327-16.291-6.982s-6.982-9.309-6.982-16.291v-60.509l-95.418 79.127c-4.655 4.655-9.309 6.982-16.291 6.982h-197.818c-27.927 0-53.527 11.636-74.473 32.582-18.618 20.945-30.255 51.2-30.255 81.455v30.255h93.091c83.782 0 153.6 60.509 153.6 144.291v121.018l193.164-2.327c27.927 0 53.527-11.636 72.145-32.582s30.255-46.545 30.255-76.8v-193.164z" />
<glyph unicode="&#xe90c;" glyph-name="smc-wen" d="M972.8 108.218l-181.527 183.855c-27.927 27.927-72.145 32.582-107.055 13.964 0 2.327-2.327 4.655-4.655 6.982l-32.582 32.582c58.182 65.164 88.436 146.618 88.436 235.055 0 95.418-37.236 183.855-104.727 251.345-139.636 139.636-365.382 139.636-505.018 0-67.491-67.491-104.727-155.927-104.727-251.345s37.236-183.855 104.727-251.345c69.818-69.818 160.582-104.727 251.345-104.727 83.782 0 167.564 30.255 235.055 88.436l32.582-32.582c2.327-2.327 4.655-2.327 4.655-4.655-9.309-13.964-13.964-30.255-13.964-46.545 0-23.273 9.309-46.545 25.6-62.836l181.527-181.527c16.291-16.291 39.564-25.6 62.836-25.6s44.218 9.309 62.836 25.6c16.291 16.291 25.6 39.564 25.6 62.836 4.655 23.273-4.655 44.218-20.945 60.509zM158.255 359.564c-58.182 58.182-90.764 137.309-90.764 218.764s32.582 160.582 90.764 218.764c60.509 60.509 139.636 90.764 218.764 90.764s158.255-30.255 218.764-90.764c58.182-58.182 90.764-137.309 90.764-218.764s-32.582-160.582-90.764-218.764c-118.691-121.018-316.509-121.018-437.527 0zM940.218 17.455c0 0 0 0 0 0-16.291-16.291-41.891-16.291-60.509 0l-181.527 181.527c-6.982 6.982-11.636 18.618-11.636 30.255s4.655 20.945 11.636 30.255c9.309 9.309 18.618 11.636 30.255 11.636s20.945-4.655 30.255-11.636l181.527-181.527c6.982-6.982 11.636-18.618 11.636-30.255s-4.655-23.273-11.636-30.255z" />
<glyph unicode="&#xe90d;" glyph-name="smc-info" d="M798.255 918.109h-565.527c-74.473 0-134.982-60.509-134.982-134.982v-556.218c0-74.473 60.509-146.618 134.982-146.618h183.855l81.455-90.764c4.655-4.655 11.636-2.327 18.618-2.327 0 0 0 0 0 0 6.982 0 13.964-2.327 18.618 2.327l83.782 90.764h181.527c74.473 0 137.309 72.145 137.309 146.618v556.218c-2.327 74.473-65.164 134.982-139.636 134.982zM889.018 226.909c0-48.873-41.891-100.073-90.764-100.073h-190.836c-6.982 0-13.964 2.327-18.618-2.327l-72.145-81.455-69.818 79.127c-4.655 4.655-11.636 4.655-18.618 4.655h-195.491c-48.873 0-88.436 51.2-88.436 100.073v556.218c0 48.873 39.564 88.436 88.436 88.436h563.2c48.873 0 90.764-39.564 90.764-88.436v-556.218zM516.655 599.273c-13.964 0-23.273-9.309-23.273-23.273v-256c0-13.964 9.309-23.273 23.273-23.273s23.273 9.309 23.273 23.273v256c0 11.636-9.309 23.273-23.273 23.273zM514.327 738.909c-13.964 0-23.273-9.309-23.273-23.273v-30.255c0-11.636 11.636-23.273 23.273-23.273 0 0 0 0 0 0 13.964 0 23.273 11.636 23.273 23.273v27.927c0 11.636-9.309 25.6-23.273 25.6z" />
<glyph unicode="&#xe90e;" glyph-name="smc-notification" d="M812.218 196.655h-600.436c-13.964 0-13.964 13.964-13.964 27.927v260.655c0 176.873 134.982 316.509 311.855 316.509h4.655c176.873 0 311.855-137.309 311.855-316.509v-262.982c0-11.636-2.327-25.6-13.964-25.6zM244.364 243.2h535.273v242.036c0 151.273-114.036 269.964-265.309 269.964h-4.655c-151.273 0-265.309-116.364-265.309-269.964v-242.036zM512 766.836c-46.545 0-83.782 37.236-83.782 86.109s37.236 83.782 83.782 83.782 83.782-37.236 83.782-86.109-37.236-83.782-83.782-83.782zM512 890.182c-20.945 0-37.236-16.291-37.236-39.564s16.291-39.564 37.236-39.564 37.236 16.291 37.236 39.564-16.291 39.564-37.236 39.564zM896 173.382c0-39.564-30.255-69.818-69.818-69.818h-651.636c-39.564 0-69.818 30.255-69.818 69.818v0c0 39.564 30.255 69.818 69.818 69.818h651.636c39.564 0 69.818-30.255 69.818-69.818v0zM849.455 173.382c0 13.964-9.309 23.273-23.273 23.273h-651.636c-13.964 0-23.273-9.309-23.273-23.273v0c0-13.964 9.309-23.273 23.273-23.273h651.636c13.964 0 23.273 9.309 23.273 23.273v0zM512-40.727c-76.8 0-139.636 65.164-139.636 144.291 0 13.964 9.309 23.273 23.273 23.273s23.273-9.309 23.273-23.273c0-53.527 41.891-97.745 93.091-97.745s93.091 44.218 93.091 97.745c0 13.964 9.309 23.273 23.273 23.273s23.273-9.309 23.273-23.273c0-79.127-62.836-144.291-139.636-144.291z" />
<glyph unicode="&#xe90f;" glyph-name="smc-phone" d="M879.709 91.927c0-72.145-58.182-130.327-130.327-130.327h-481.745c-72.145 0-130.327 58.182-130.327 130.327v716.8c0 72.145 58.182 130.327 130.327 130.327h484.073c72.145 0 130.327-58.182 130.327-130.327v-716.8zM833.164 808.727c0 46.545-37.236 83.782-83.782 83.782h-481.745c-46.545 0-83.782-37.236-83.782-83.782v-716.8c0-46.545 37.236-83.782 83.782-83.782h484.073c46.545 0 83.782 37.236 83.782 83.782v716.8zM512 70.982c-37.236 0-67.491 30.255-67.491 67.491s30.255 67.491 67.491 67.491 67.491-30.255 67.491-67.491-30.255-67.491-67.491-67.491zM512 159.418c-11.636 0-20.945-9.309-20.945-20.945s9.309-20.945 20.945-20.945 20.945 9.309 20.945 20.945-9.309 20.945-20.945 20.945zM570.182 729.6h-116.364c-13.964 0-23.273 9.309-23.273 23.273s9.309 23.273 23.273 23.273h116.364c13.964 0 23.273-9.309 23.273-23.273s-9.309-23.273-23.273-23.273z" />
<glyph unicode="&#xe920;" glyph-name="smc-cart-alt" d="M993.524 682.057c-15.848 21.943-41.448 32.914-68.267 32.914h-671.695l-10.971 36.571c-19.505 71.924-82.895 121.905-156.038 121.905-1.219 0-1.219 0-2.438 0l-60.952 1.219c-6.095 0-10.971-6.095-10.971-13.41 0-6.095 6.095-13.41 12.19-13.41 0 0 0 0 0 0h60.952c0 0 1.219 0 1.219 0 62.171 0 117.029-40.229 132.876-102.4l157.257-531.505c3.657-14.629 9.752-28.038 17.067-40.229-19.505-15.848-31.695-40.229-31.695-67.048 0-23.162 9.752-45.105 25.6-60.952s36.571-26.819 58.514-26.819c0 0 1.219 0 1.219 0 41.448 0 74.362 32.914 81.676 71.924 1.219 0 2.438 1.219 3.657 1.219s1.219 0 2.438 0l247.467 1.219c2.438-17.067 10.971-35.352 24.381-47.543 15.848-15.848 36.571-26.819 58.514-26.819 0 0 1.219 0 1.219 0 46.324 0 82.895 42.667 82.895 90.21 0 0 0 0 0 0 0 23.162-8.533 41.448-25.6 58.514-15.848 15.848-36.571 21.943-58.514 21.943 0 0-1.219 0-1.219 0-42.667 0-78.019-31.695-82.895-73.143h-246.248c-1.219 0-3.657 0-4.876 0-2.438 19.505-10.971 36.571-24.381 49.981-15.848 15.848-36.571 21.943-58.514 21.943 0 0-1.219 0-1.219 0-10.971 0-20.724 0-30.476-4.876-6.095 10.971-10.971 23.162-14.629 35.352l-8.533 28.038 457.143 6.095c51.2 0 95.086 34.133 109.714 84.114 0 0 0 1.219 0 1.219l48.762 264.533c7.314 29.257 2.438 56.076-14.629 79.238zM863.086 166.4c0 0 1.219 0 0 0 15.848 0 30.476-3.657 42.667-14.629 10.971-10.971 18.286-25.6 18.286-41.448 0-34.133-25.6-60.952-58.514-62.171-15.848 0-30.476 6.095-42.667 17.067-10.971 10.971-18.286 24.381-18.286 41.448 0 34.133 25.6 59.733 58.514 59.733zM444.952 166.4c0 0 1.219 0 0 0 15.848 0 30.476-3.657 42.667-14.629 10.971-10.971 18.286-25.6 18.286-41.448 0-1.219 0-1.219 0-1.219s0 0 0 0 0 0 0 0c-1.219-32.914-26.819-58.514-58.514-58.514-15.848 0-30.476 6.095-42.667 17.067-10.971 10.971-18.286 24.381-18.286 41.448 0 31.695 25.6 57.295 58.514 57.295zM848.457 279.771l-464.457-7.314-123.124 418.133h664.381c19.505 0 36.571-7.314 48.762-23.162s15.848-36.571 9.752-56.076c0 0 0-2.438 0-2.438l-4.876-28.038h-555.886c-7.314 0-12.19-4.876-12.19-12.19s4.876-12.19 12.19-12.19h551.010l-28.038-149.943-547.352 3.657c0 0 0 0 0 0-6.095 0-12.19-2.438-12.19-9.752s4.876-10.971 12.19-10.971l543.695-1.219-8.533-43.886c-10.971-37.79-45.105-64.61-85.333-64.61z" />
<glyph unicode="&#xe921;" glyph-name="smc-cart-cancel" d="M993.524 682.057c-15.848 21.943-41.448 32.914-68.267 32.914h-671.695l-10.971 36.571c-19.505 71.924-82.895 121.905-156.038 121.905-1.219 0-1.219 0-2.438 0l-59.733 1.219c-7.314 0-12.19-6.095-12.19-13.41 0-6.095 6.095-13.41 12.19-13.41 0 0 0 0 0 0h60.952c0 0 1.219 0 1.219 0 62.171 0 117.029-40.229 132.876-102.4l157.257-531.505c3.657-14.629 9.752-28.038 17.067-40.229-19.505-15.848-31.695-40.229-31.695-67.048 0-23.162 9.752-45.105 25.6-60.952s36.571-26.819 58.514-26.819c0 0 1.219 0 1.219 0 41.448 0 74.362 31.695 81.676 71.924 1.219 0 2.438 1.219 3.657 1.219s1.219 0 2.438 0l247.467 1.219c2.438-17.067 10.971-35.352 24.381-47.543 15.848-15.848 36.571-26.819 58.514-26.819 0 0 1.219 0 1.219 0 46.324 0 74.362 42.667 74.362 90.21 0 0 0 0 0 0 0 23.162-4.876 41.448-20.724 58.514-15.848 15.848-32.914 21.943-54.857 21.943 0 0-1.219 0-1.219 0-42.667 0-78.019-31.695-82.895-73.143h-246.248c-1.219 0-3.657 0-4.876 0-2.438 19.505-10.971 36.571-24.381 49.981-15.848 15.848-36.571 21.943-58.514 21.943 0 0-1.219 0-1.219 0-10.971 0-20.724 0-30.476-4.876-6.095 10.971-10.971 23.162-14.629 35.352l-8.533 28.038 457.143 6.095c51.2 0 95.086 34.133 109.714 84.114 0 0 0 1.219 0 1.219l48.762 264.533c7.314 29.257 2.438 56.076-14.629 79.238zM863.086 166.4c0 0 1.219 0 0 0 15.848 0 30.476-3.657 42.667-14.629 10.971-10.971 18.286-25.6 18.286-41.448 0-34.133-25.6-60.952-58.514-62.171-15.848 0-30.476 6.095-42.667 17.067-10.971 10.971-18.286 24.381-18.286 41.448 0 34.133 25.6 59.733 58.514 59.733zM444.952 166.4c0 0 1.219 0 0 0 15.848 0 30.476-3.657 42.667-14.629 10.971-10.971 18.286-25.6 18.286-41.448 0-34.133-25.6-60.952-58.514-62.171-15.848 0-30.476 6.095-42.667 17.067-10.971 10.971-18.286 24.381-18.286 41.448 0 34.133 25.6 59.733 58.514 59.733zM983.771 611.352c0 0 0-1.219 0-1.219l-48.762-264.533c-12.19-39.010-46.324-64.61-86.552-65.829l-464.457-7.314-123.124 418.133h664.381c19.505 0 36.571-7.314 48.762-23.162 12.19-17.067 15.848-36.571 9.752-56.076zM752.152 595.505c-4.876 4.876-12.19 4.876-17.067 0l-91.429-93.867-91.429 93.867c-4.876 4.876-12.19 4.876-17.067 0s-4.876-12.19 0-17.067l92.648-93.867-92.648-93.867c-4.876-4.876-4.876-12.19 0-17.067 2.438-2.438 4.876-3.657 8.533-3.657s6.095 1.219 8.533 3.657l91.429 93.867 91.429-93.867c2.438-2.438 6.095-3.657 8.533-3.657 3.657 0 6.095 1.219 8.533 3.657 4.876 4.876 4.876 12.19 0 17.067l-92.648 93.867 92.648 93.867c4.876 4.876 4.876 12.19 0 17.067z" />
<glyph unicode="&#xe922;" glyph-name="smc-cart-up" d="M993.524 682.057c-15.848 21.943-41.448 32.914-68.267 32.914h-671.695l-10.971 36.571c-19.505 71.924-82.895 121.905-156.038 121.905-1.219 0-1.219 0-2.438 0l-59.733 1.219c-7.314 0-12.19-6.095-12.19-13.41 0-6.095 6.095-13.41 12.19-13.41 0 0 0 0 0 0h60.952c0 0 1.219 0 1.219 0 62.171 0 117.029-40.229 132.876-102.4l157.257-531.505c3.657-14.629 9.752-28.038 17.067-40.229-19.505-15.848-31.695-40.229-31.695-67.048 0-23.162 9.752-45.105 25.6-60.952s36.571-26.819 58.514-26.819c0 0 1.219 0 1.219 0 41.448 0 71.924 32.914 79.238 71.924 2.438 0 4.876 1.219 7.314 1.219 1.219 0 1.219 0 2.438 0l247.467 1.219c2.438-17.067 10.971-35.352 24.381-47.543 15.848-15.848 36.571-26.819 58.514-26.819 0 0 1.219 0 1.219 0 46.324 0 90.21 42.667 90.21 90.21 0 0 0 0 0 0 0 23.162-13.41 41.448-29.257 58.514-15.848 15.848-40.229 21.943-62.171 21.943 0 0-1.219 0-1.219 0-42.667 0-78.019-31.695-82.895-73.143h-246.248c-2.438 0-4.876 0-7.314 0-1.219 19.505-9.752 36.571-23.162 49.981-15.848 15.848-35.352 21.943-57.295 21.943 0 0-1.219 0-1.219 0-10.971 0-20.724 0-30.476-4.876-6.095 10.971-10.971 23.162-14.629 35.352l-8.533 28.038 457.143 6.095c51.2 0 95.086 34.133 109.714 84.114 0 0 0 1.219 0 1.219l48.762 264.533c6.095 29.257 1.219 56.076-15.848 79.238zM863.086 166.4c0 0 1.219 0 0 0 15.848 0 30.476-3.657 42.667-14.629 10.971-10.971 18.286-25.6 18.286-41.448 0-34.133-25.6-60.952-58.514-62.171-15.848 0-30.476 6.095-42.667 17.067-10.971 10.971-18.286 24.381-18.286 41.448 0 34.133 25.6 59.733 58.514 59.733zM444.952 166.4c1.219 0 1.219 0 0 0 15.848 0 30.476-3.657 42.667-14.629 10.971-10.971 17.067-25.6 18.286-41.448 0-1.219 0-1.219 0-1.219s0 0 0 0 0 0 0 0c0-32.914-26.819-58.514-58.514-59.733-15.848 0-30.476 6.095-42.667 17.067-10.971 10.971-18.286 24.381-18.286 41.448 0 32.914 25.6 58.514 58.514 58.514zM983.771 611.352c0 0 0-1.219 0-1.219l-48.762-264.533c-12.19-39.010-46.324-64.61-86.552-65.829l-464.457-7.314-123.124 418.133h664.381c19.505 0 36.571-7.314 48.762-23.162 12.19-17.067 15.848-36.571 9.752-56.076zM666.819 619.886c0 0 0 0 0 0-1.219 0-1.219 1.219 0 0-1.219 1.219-1.219 1.219-2.438 1.219s-1.219 1.219-2.438 1.219c-1.219 0-1.219 0-2.438 0s-1.219 0-2.438 0-1.219 0-2.438 0-1.219 0-2.438 0-1.219-1.219-2.438-1.219c-1.219 0-1.219-1.219-2.438-1.219 0 0 0 0 0 0s0 0 0 0l-102.4-104.838c-4.876-4.876-4.876-12.19 0-17.067 2.438-2.438 4.876-3.657 8.533-3.657s6.095 1.219 8.533 3.657l84.114 84.114 3.657-221.867c0-6.095 6.095-12.19 12.19-12.19 0 0 0 0 0 0 7.314 0 12.19 4.876 12.19 10.971l-3.657 221.867 84.114-86.552c2.438-2.438 6.095-3.657 8.533-3.657 3.657 0 6.095 1.219 8.533 3.657 4.876 4.876 4.876 12.19 0 17.067l-104.838 108.495z" />
<glyph unicode="&#xe923;" glyph-name="smc-cart-down" d="M993.524 682.057c-15.848 21.943-41.448 32.914-68.267 32.914h-671.695l-10.971 36.571c-19.505 71.924-82.895 121.905-156.038 121.905-1.219 0-1.219 0-2.438 0l-59.733 1.219c-7.314 0-12.19-6.095-12.19-13.41 0-6.095 6.095-13.41 12.19-13.41 0 0 0 0 0 0l60.952 2.438c63.39 1.219 118.248-41.448 134.095-103.619l157.257-531.505c3.657-14.629 9.752-28.038 17.067-40.229-19.505-15.848-31.695-40.229-31.695-67.048 0-23.162 9.752-45.105 25.6-60.952s36.571-26.819 58.514-26.819c0 0 1.219 0 1.219 0 42.667 0 81.676 34.133 79.238 75.581 2.438-2.438 4.876-2.438 8.533-2.438 0 0 0 0 0 0l247.467 1.219c2.438-17.067 10.971-35.352 24.381-47.543 15.848-15.848 36.571-26.819 58.514-26.819 0 0 1.219 0 1.219 0 46.324 0 82.895 42.667 82.895 90.21 0 0 0 0 0 0 0 23.162-8.533 41.448-24.381 58.514-15.848 15.848-36.571 21.943-58.514 21.943 0 0-1.219 0-1.219 0-42.667 0-78.019-31.695-82.895-73.143h-246.248c-4.876 0-8.533-2.438-10.971-6.095 0 21.943-6.095 41.448-21.943 57.295s-34.133 21.943-56.076 21.943c0 0-1.219 0-1.219 0-10.971 0-20.724 0-30.476-4.876-6.095 10.971-10.971 23.162-14.629 35.352l-8.533 28.038 457.143 6.095c51.2 0 95.086 34.133 109.714 84.114 0 0 0 1.219 0 1.219l48.762 264.533c7.314 26.819 2.438 53.638-14.629 76.8zM863.086 166.4c1.219 0 1.219 0 0 0 15.848 0 30.476-3.657 42.667-14.629 10.971-10.971 18.286-25.6 18.286-41.448 0-34.133-25.6-60.952-58.514-62.171-15.848 0-30.476 6.095-42.667 17.067-10.971 10.971-18.286 24.381-18.286 41.448 0 34.133 25.6 59.733 58.514 59.733zM444.952 166.4c1.219 0 1.219 0 0 0 15.848 0 30.476-3.657 42.667-14.629 10.971-10.971 18.286-25.6 18.286-41.448 0-34.133-25.6-60.952-58.514-62.171-15.848 0-30.476 6.095-42.667 17.067-10.971 10.971-18.286 24.381-18.286 41.448 0 34.133 25.6 59.733 58.514 59.733zM984.99 611.352c0 0 0-1.219 0-1.219l-48.762-264.533c-12.19-39.010-46.324-64.61-86.552-65.829l-464.457-7.314-124.343 418.133h664.381c19.505 0 36.571-7.314 48.762-23.162 12.19-17.067 15.848-36.571 10.971-56.076zM754.59 473.6l-81.676-84.114-2.438 223.086c0 7.314-4.876 12.19-12.19 12.19s-12.19-4.876-12.19-12.19l3.657-221.867-84.114 86.552c-4.876 4.876-12.19 4.876-17.067 0s-4.876-12.19 0-17.067l106.057-108.495c0 0 0 0 0 0s0 0 0 0c1.219-1.219 1.219-1.219 2.438-1.219 0 0 1.219-1.219 1.219-1.219 1.219 0 2.438-1.219 4.876-1.219s3.657 0 4.876 1.219c0 0 1.219 0 1.219 1.219 1.219 0 2.438 1.219 2.438 1.219s0 0 0 0 0 0 0 0l102.4 104.838c4.876 4.876 4.876 12.19 0 17.067-7.314 4.876-14.629 4.876-19.505 0z" />
<glyph unicode="&#xe924;" glyph-name="smc-cart-right" d="M993.524 682.057c-15.848 21.943-41.448 32.914-68.267 32.914h-671.695l-10.971 36.571c-19.505 71.924-82.895 121.905-156.038 121.905-1.219 0-1.219 0-2.438 0l-59.733 1.219c-7.314 0-12.19-6.095-12.19-13.41 0-6.095 6.095-13.41 12.19-13.41 0 0 0 0 0 0h60.952c0 0 1.219 0 1.219 0 62.171 0 117.029-40.229 132.876-102.4l157.257-531.505c3.657-14.629 9.752-28.038 17.067-40.229-19.505-15.848-31.695-40.229-31.695-67.048 0-23.162 9.752-45.105 25.6-60.952s36.571-26.819 58.514-26.819c0 0 1.219 0 1.219 0 41.448 0 76.8 31.695 84.114 71.924 0 0 1.219 1.219 1.219 1.219 1.219 0 1.219 0 2.438 0l247.467 1.219c2.438-17.067 10.971-35.352 24.381-47.543 15.848-15.848 36.571-26.819 58.514-26.819 0 0 1.219 0 1.219 0 46.324 0 84.114 41.448 82.895 88.99 0 23.162-9.752 43.886-25.6 59.733s-36.571 23.162-58.514 23.162c0 0-1.219 0-1.219 0-42.667 0-78.019-31.695-82.895-73.143h-246.248c0 0-1.219 0-1.219 0-2.438 19.505-12.19 36.571-25.6 49.981-15.848 15.848-37.79 21.943-59.733 21.943 0 0-1.219 0-1.219 0-10.971 0-20.724 0-30.476-4.876-6.095 10.971-10.971 23.162-14.629 36.571l-8.533 28.038 457.143 6.095c51.2 0 95.086 34.133 109.714 84.114 0 0 0 1.219 0 1.219l48.762 264.533c6.095 26.819 1.219 53.638-15.848 76.8zM864.305 166.4c0 0 0 0 0 0 15.848 0 32.914-3.657 43.886-14.629s19.505-24.381 19.505-40.229c0 0 0 0 0 0 0-34.133-28.038-62.171-60.952-62.171-15.848 0-31.695 6.095-42.667 17.067s-18.286 24.381-18.286 41.448c-1.219 32.914 25.6 58.514 58.514 58.514zM446.171 166.4c0 0 0 0 0 0 15.848 0 30.476-3.657 42.667-14.629 10.971-10.971 18.286-25.6 18.286-41.448 0-1.219 0-1.219 0-1.219s0 0 0 0 0 0 0 0c-1.219-31.695-26.819-58.514-58.514-58.514-15.848 0-30.476 6.095-42.667 17.067-10.971 10.971-18.286 24.381-18.286 41.448-1.219 31.695 25.6 57.295 58.514 57.295zM984.99 611.352c0 0 0-1.219 0-1.219l-48.762-264.533c-12.19-39.010-46.324-64.61-86.552-65.829l-464.457-7.314-124.343 418.133h664.381c19.505 0 36.571-7.314 48.762-23.162 12.19-17.067 15.848-36.571 10.971-56.076zM793.6 491.886c0 0 0 1.219 0 0-1.219 2.438-2.438 4.876-3.657 6.095l-101.181 103.619c-4.876 4.876-12.19 4.876-17.067 0s-4.876-12.19 0-17.067l81.676-84.114-216.99-3.657c-7.314 0-12.19-7.314-12.19-13.41s6.095-13.41 12.19-13.41c0 0 0 0 0 0l216.99 3.657-86.552-87.771c-4.876-4.876-4.876-12.19 0-17.067 2.438-2.438 4.876-3.657 8.533-3.657s6.095 1.219 8.533 3.657l106.057 108.495c0 0 1.219 1.219 1.219 2.438s1.219 1.219 1.219 2.438c0 1.219 0 1.219 0 2.438s0 1.219 0 2.438c0 0 0 0 0 0s1.219 0 1.219 0c0 2.438 0 3.657 0 4.876z" />
<glyph unicode="&#xe925;" glyph-name="smc-cross" d="M529.067 450.438l284.038 284.038c4.876 4.876 4.876 12.19 0 17.067s-12.19 4.876-17.067 0l-284.038-284.038-284.038 284.038c-4.876 4.876-12.19 4.876-17.067 0s-4.876-12.19 0-17.067l284.038-284.038-284.038-284.038c-4.876-4.876-4.876-12.19 0-17.067 2.438-2.438 6.095-3.657 8.533-3.657s6.095 1.219 8.533 3.657l284.038 284.038 284.038-284.038c2.438-2.438 6.095-3.657 8.533-3.657s6.095 1.219 8.533 3.657c4.876 4.876 4.876 12.19 0 17.067l-284.038 284.038z" />
<glyph unicode="&#xe926;" glyph-name="smc-check" d="M926.476 729.6c-4.876 4.876-12.19 4.876-17.067 0l-527.848-532.724-266.971 271.848c-4.876 4.876-12.19 4.876-17.067 0s-4.876-12.19 0-17.067l275.505-280.381c0 0 0 0 0 0s0 0 0 0c1.219-1.219 1.219-1.219 2.438-1.219 0 0 1.219-1.219 1.219-1.219 1.219 0 2.438-1.219 4.876-1.219 1.219 0 3.657 0 4.876 1.219 0 0 1.219 1.219 1.219 1.219 1.219 0 2.438 1.219 2.438 1.219s0 0 0 0 0 0 0 0l536.381 541.257c4.876 3.657 4.876 12.19 0 17.067z" />
<glyph unicode="&#xe927;" glyph-name="smc-truck" d="M618.057 226.133h-231.619v24.381h207.238v468.114c0 4.876-6.095 7.314-12.19 7.314h-457.143c-4.876 0-6.095-2.438-6.095-7.314v-454.705c0-4.876 0-13.41 6.095-13.41h91.429v-24.381h-91.429c-18.286 0-30.476 19.505-30.476 37.79v454.705c0 18.286 10.971 31.695 30.476 31.695h457.143c18.286 0 36.571-13.41 36.571-31.695v-492.495zM887.467 226.133c0 0-1.219 0-1.219 0h-47.543v24.381h48.762c7.314 0 13.41 3.657 17.067 7.314s4.876 8.533 4.876 14.629v192.61c0 76.8-62.171 138.971-138.971 138.971h-132.876c-12.19 0-21.943-12.19-21.943-24.381v-329.143h64.61v-24.381h-88.99v353.524c0 25.6 20.724 48.762 46.324 48.762h132.876c90.21 0 163.352-73.143 163.352-163.352v-191.39c0-12.19-4.876-24.381-12.19-32.914-9.752-8.533-20.724-14.629-34.133-14.629zM847.238 408.99h-102.4c-14.629 0-29.257 13.41-29.257 28.038v108.495c0 14.629 15.848 21.943 29.257 21.943h15.848c62.171 0 113.371-46.324 113.371-108.495v-21.943c0-14.629-12.19-28.038-26.819-28.038zM746.057 543.086c-1.219 0-4.876 3.657-4.876 2.438v-108.495c0-1.219 4.876-3.657 4.876-3.657h102.4c1.219 0 2.438 2.438 2.438 3.657v21.943c0 48.762-40.229 84.114-88.99 84.114h-15.848zM298.667 144.457c-53.638 0-97.524 43.886-97.524 97.524s43.886 97.524 97.524 97.524 97.524-43.886 97.524-97.524-43.886-97.524-97.524-97.524zM298.667 315.124c-40.229 0-73.143-32.914-73.143-73.143s32.914-73.143 73.143-73.143 73.143 32.914 73.143 73.143-32.914 73.143-73.143 73.143zM761.905 148.114c-51.2 0-93.867 41.448-93.867 93.867s41.448 93.867 93.867 93.867 93.867-41.448 93.867-93.867-42.667-93.867-93.867-93.867zM761.905 310.248c-37.79 0-69.486-30.476-69.486-69.486 0-37.79 30.476-69.486 69.486-69.486 37.79 0 69.486 30.476 69.486 69.486s-31.695 69.486-69.486 69.486zM761.905 196.876c-24.381 0-45.105 19.505-45.105 45.105s19.505 45.105 45.105 45.105 45.105-19.505 45.105-45.105-20.724-45.105-45.105-45.105zM761.905 261.486c-10.971 0-20.724-8.533-20.724-20.724 0-10.971 8.533-20.724 20.724-20.724 10.971 0 20.724 8.533 20.724 20.724s-9.752 20.724-20.724 20.724zM298.667 196.876c-24.381 0-45.105 19.505-45.105 45.105s19.505 45.105 45.105 45.105 45.105-19.505 45.105-45.105-20.724-45.105-45.105-45.105zM298.667 261.486c-10.971 0-20.724-8.533-20.724-20.724 0-10.971 8.533-20.724 20.724-20.724 10.971 0 20.724 8.533 20.724 20.724s-9.752 20.724-20.724 20.724z" />
<glyph unicode="&#xe928;" glyph-name="smc-provision" d="M875.276 284.648c-3.657 2.438-9.752 2.438-13.41-1.219l-30.476-20.724-21.943 14.629v117.029c0 54.857-36.571 102.4-85.333 121.905v117.029c12.19 7.314 17.067 17.067 17.067 29.257 0 20.724-14.629 37.79-35.352 37.79h-29.257c0 73.143-62.171 130.438-135.314 130.438-74.362 0-135.314-59.733-135.314-132.876v-195.048c-12.19-3.657-24.381-10.971-36.571-19.505v60.952c0 10.971-1.219 19.505-9.752 25.6s-17.067 7.314-26.819 3.657c-31.695-12.19-51.2-42.667-51.2-76.8 0-28.038 14.629-52.419 35.352-67.048-59.733-19.505-101.181-75.581-101.181-141.41 0-2.438 0-3.657 0-6.095l-30.476-20.724-26.819 20.724c-3.657 2.438-8.533 3.657-13.41 1.219-3.657-2.438-7.314-7.314-6.095-12.19l14.629-196.267c0-6.095 6.095-10.971 12.19-10.971 0 0 0 0 1.219 0 7.314 0 12.19 6.095 10.971 13.41l-12.19 169.448 12.19-8.533c3.657-3.657 9.752-3.657 14.629 0l30.476 20.724 23.162-17.067 12.19-165.79c0-6.095 6.095-10.971 12.19-10.971 0 0 1.219 0 1.219 0 6.095 0 12.19 6.095 10.971 13.41l-12.19 164.571 21.943 15.848 28.038-20.724c3.657-2.438 9.752-3.657 14.629 0l30.476 20.724 28.038-20.724c3.657-2.438 9.752-3.657 14.629 0l30.476 20.724 28.038-20.724c4.876-3.657 9.752-3.657 14.629 0l26.819 19.505c0 0 0 0 0 0v0l28.038-20.724c3.657-2.438 9.752-3.657 14.629 0l30.476 20.724 28.038-20.724c3.657-2.438 9.752-3.657 14.629 0l30.476 20.724 28.038-20.724c3.657-2.438 9.752-3.657 14.629 0l30.476 20.724 28.038-20.724c4.876-3.657 9.752-3.657 14.629 0l28.038 20.724 28.038-20.724c3.657-3.657 9.752-3.657 14.629 0l15.848 10.971-12.19-170.667c0-7.314 4.876-12.19 10.971-13.41 6.095 0 12.19 4.876 13.41 10.971l14.629 196.267c-2.438 6.095-4.876 10.971-8.533 13.41zM675.352 527.238c-8.533 0-10.971-1.219-23.162-2.438v103.619h48.762v-103.619c0 1.219-15.848 2.438-25.6 2.438zM720.457 664.99c0-7.314-6.095-12.19-13.41-12.19h-53.638c-7.314 0-13.41 4.876-13.41 12.19s6.095 12.19 13.41 12.19h53.638c7.314 0 13.41-4.876 13.41-12.19zM437.638 488.229c24.381 0 45.105-15.848 53.638-37.79 1.219-2.438 0-2.438-1.219-3.657s-2.438 0-6.095 0h-104.838c7.314 23.162 30.476 41.448 58.514 41.448zM346.21 552.838c1.219 0 1.219 0 2.438 0s-1.219-1.219 0-1.219c1.219-1.219-1.219-2.438-1.219-6.095v-104.838c-24.381 6.095-41.448 29.257-41.448 57.295-1.219 24.381 17.067 45.105 40.229 54.857zM475.429 262.705l-28.038 20.724c-3.657 2.438-9.752 3.657-14.629 0l-30.476-20.724-28.038 20.724c-3.657 2.438-9.752 3.657-14.629 0l-30.476-20.724-28.038 20.724c-4.876 3.657-9.752 3.657-14.629 0l-28.038-20.724-17.067 12.19c0 4.876-1.219 8.533-1.219 13.41 0 68.267 56.076 124.343 124.343 124.343s128-54.857 128-123.124c0-4.876 0-9.752-1.219-14.629l-15.848-12.19zM516.876 283.429c-1.219 0-1.219 1.219 0 0-1.219 2.438 0 7.314 0 9.752 0 52.419-26.819 91.429-67.048 128h36.571c10.971 0 19.505 2.438 25.6 10.971s7.314 18.286 3.657 28.038c-12.19 31.695-43.886 51.2-78.019 51.2-1.219 0-3.657-1.219-3.657-1.219v54.857l108.495-64.61c2.438-1.219 4.876-1.219 7.314-1.219 3.657 0 8.533 2.438 10.971 6.095 3.657 6.095 1.219 13.41-3.657 17.067l-110.933 65.829c-3.657 2.438-10.971 2.438-10.971 1.219v60.952l108.495-64.61c2.438-1.219 4.876-1.219 7.314-1.219 3.657 0 8.533 2.438 10.971 6.095 3.657 6.095 1.219 13.41-3.657 17.067l-110.933 65.829c-3.657 2.438-10.971 2.438-10.971 1.219v29.257c0 59.733 49.981 108.495 110.933 108.495 59.733 0 109.714-45.105 110.933-106.057h-1.219c-20.724 0-37.79-17.067-37.79-37.79 0-10.971 0-20.724 12.19-26.819v-118.248c-48.762-19.505-85.333-67.048-85.333-123.124v-130.438l-29.257 13.41zM721.676 283.429l-30.476-20.724-28.038 20.724c-3.657 2.438-9.752 3.657-14.629 0l-30.476-20.724-3.657 3.657v96.305l47.543-2.438c10.971 0 18.286 0 29.257 0l45.105 2.438v-85.333l-4.876 6.095c-3.657 3.657-6.095 3.657-9.752 0zM761.905 267.581v107.276c0 3.657 1.219 7.314-1.219 9.752s-4.876 3.657-7.314 3.657l-59.733-3.657c-9.752 0-19.505 0-29.257 0l-60.952 3.657c-7.314 0-12.19-6.095-12.19-13.41v-90.21c-12.19 2.438-10.971 2.438-14.629 0l-9.752-4.876v115.81c0 45.105 29.257 84.114 70.705 99.962 1.219 0 2.438 0 2.438 0 3.657 0 7.314 1.219 9.752 3.657 9.752 2.438 18.286 3.657 28.038 3.657 60.952 0 108.495-48.762 108.495-108.495v-113.371l-24.381-13.41z" />
<glyph unicode="&#xe929;" glyph-name="smc-profile" d="M848.457 106.667c-1.219 4.876-35.352 110.933-102.4 125.562-87.771 18.286-136.533 52.419-145.067 106.057 59.733 26.819 98.743 90.21 98.743 162.133v57.295c0 7.314-4.876 12.19-12.19 12.19s-12.19-4.876-12.19-12.19v-58.514c0-84.114-59.733-152.381-137.752-152.381h-40.229c-78.019 0-138.971 68.267-138.971 152.381v96.305c0 21.943-7.314 41.448-13.41 59.733-4.876 17.067-10.971 31.695-10.971 47.543 0 19.505 6.095 36.571 15.848 46.324 6.095 6.095 14.629 9.752 24.381 9.752 80.457-2.438 165.79 10.971 206.019 17.067l-14.629-35.352c-1.219-4.876-1.219-9.752 2.438-13.41s8.533-4.876 13.41-2.438l79.238 29.257-17.067-87.771c-1.219-3.657 0-7.314 2.438-9.752s6.095-3.657 9.752-3.657h37.79l-10.971-17.067c-3.657-4.876-2.438-13.41 2.438-17.067s13.41-2.438 17.067 2.438l25.6 35.352c2.438 3.657 3.657 8.533 1.219 13.41-2.438 3.657-6.095 7.314-10.971 7.314h-47.543l18.286 93.867c1.219 4.876-1.219 8.533-3.657 10.971-3.657 2.438-8.533 3.657-12.19 2.438l-74.362-28.038 12.19 30.476c1.219 3.657 1.219 8.533-2.438 12.19-2.438 3.657-7.314 4.876-12.19 3.657-1.219 0-118.248-24.381-221.867-20.724-15.848 0-31.695-4.876-42.667-15.848-14.629-14.629-23.162-37.79-23.162-63.39 0-19.505 7.314-37.79 13.41-54.857s12.19-34.133 12.19-52.419v-96.305c0-73.143 40.229-135.314 98.743-162.133-12.19-68.267-93.867-92.648-154.819-106.057-67.048-14.629-101.181-120.686-102.4-125.562-1.219-3.657-1.219-7.314 1.219-9.752 2.438-3.657 6.095-4.876 9.752-4.876h649.752c3.657 0 7.314 1.219 9.752 4.876s3.657 7.314 2.438 10.971zM619.276 260.267c-1.219-1.219-1.219-1.219-2.438-2.438l-12.19-29.257-51.2 26.819c18.286 7.314 30.476 19.505 37.79 37.79 8.533-12.19 18.286-23.162 28.038-32.914zM537.6 323.657c13.41 0 26.819 2.438 39.010 6.095-3.657-39.010-21.943-54.857-58.514-54.857 0 0 0 0 0 0-37.79 0-54.857 15.848-58.514 54.857 12.19-3.657 25.6-6.095 39.010-6.095h39.010zM441.295 294.4c7.314-19.505 20.724-31.695 39.010-39.010l-49.981-26.819-12.19 37.79c8.533 8.533 17.067 17.067 23.162 28.038zM204.8 116.419c10.971 24.381 37.79 84.114 78.019 92.648 23.162 4.876 74.362 15.848 114.59 42.667l14.629-42.667c1.219-3.657 3.657-6.095 7.314-7.314 1.219 0 2.438-1.219 4.876-1.219s3.657 0 6.095 1.219l75.581 40.229v-124.343h-301.105zM529.067 116.419v124.343l76.8-40.229c2.438-1.219 6.095-2.438 9.752-1.219s6.095 3.657 7.314 7.314l15.848 39.010c37.79-24.381 81.676-32.914 102.4-37.79 40.229-8.533 67.048-68.267 78.019-92.648h-290.133zM563.2 460.19c-4.876-6.095-34.133-14.629-48.762-14.629s-42.667 7.314-48.762 14.629c-4.876 4.876-12.19 6.095-17.067 1.219s-6.095-12.19-1.219-17.067c13.41-15.848 53.638-23.162 67.048-23.162s53.638 7.314 67.048 23.162c4.876 4.876 3.657 13.41-1.219 17.067-4.876 4.876-13.41 3.657-17.067-1.219z" />
<glyph unicode="&#xe92f;" glyph-name="smc-chevron-right" d="M656.836 459.993c-1.845 5.535-3.69 11.070-9.225 14.76l-219.56 238.011c-14.76 14.76-36.901 16.605-51.661 1.845s-16.605-36.901-1.845-51.661l199.265-215.87-199.265-214.025c-14.76-14.76-12.915-38.746 1.845-51.661 7.38-7.38 16.605-9.225 25.831-9.225s20.295 3.69 27.676 11.070l219.56 238.011c11.070 11.070 12.915 25.831 7.38 38.746z" />
<glyph unicode="&#xe930;" glyph-name="smc-back" d="M737.28 475.927h-363.055l163.84 180.596c14.895 14.895 13.033 40.96-1.862 53.993-14.895 14.895-39.098 14.895-52.131-1.862l-221.556-238.313c0 0-1.862-1.862-1.862-1.862 0-1.862-1.862-1.862-1.862-3.724s-1.862-1.862-1.862-3.724c0-1.862-1.862-1.862-1.862-3.724s0-1.862-1.862-3.724 0-1.862 0-3.724c0-1.862 0-1.862 0-3.724 0 0 0-1.862 0-1.862s0 0 0 0c0-1.862 0-1.862 0-3.724s0-1.862 0-3.724 0-1.862 1.862-3.724c0-1.862 0-1.862 1.862-3.724 1.862-5.585 3.724-9.309 7.447-14.895l221.556-240.175c7.447-7.447 16.756-11.171 27.927-11.171 9.309 0 18.618 3.724 26.065 9.309 14.895 14.895 16.756 33.513 1.862 48.407l-169.425 180.596h363.055c20.48 0 37.236 16.756 37.236 37.236s-14.895 37.236-35.375 37.236z" />
<glyph unicode="&#xe931;" glyph-name="smc-star-filled" d="M285.257 309.029l-60.343-246.857c-5.486-25.6 21.943-47.543 45.714-32.914l215.771 135.314c9.143 5.486 21.943 5.486 31.086 0l221.257-122.514c21.943-12.8 49.371 7.314 43.886 32.914l-53.029 239.543c-1.829 10.971 1.829 21.943 9.143 29.257l186.514 168.229c20.114 18.286 9.143 51.2-18.286 53.029l-246.857 21.943c-10.971 1.829-20.114 9.143-25.6 18.286l-96.914 241.371c-10.971 25.6-45.714 25.6-56.686 0l-102.4-248.686c-3.657-10.971-14.629-18.286-25.6-18.286l-241.371-16.457c-25.6-1.829-38.4-34.743-18.286-53.029l182.857-171.886c9.143-7.314 10.971-18.286 9.143-29.257z" />
</font>
</defs>
</svg>
